<?xml version="1.0" encoding="UTF-8"?><svg xmlns="http://www.w3.org/2000/svg" xmlns:xlink="http://www.w3.org/1999/xlink" viewBox="0 0 255.35 359.7"><defs><style>.cls-1{fill:url(#linear-gradient-2);}.cls-2{isolation:isolate;}.cls-3{fill:#79b18d;}.cls-4{fill:url(#linear-gradient-3);}.cls-5{fill:#5a7f62;}.cls-6{mix-blend-mode:multiply;opacity:.68;}.cls-7{fill:url(#linear-gradient);}.cls-8{fill:url(#linear-gradient-4);}</style><linearGradient id="linear-gradient" x1="24.69" y1="182.48" x2="255.35" y2="182.48" gradientUnits="userSpaceOnUse"><stop offset="0" stop-color="#fff"/><stop offset="1" stop-color="#231f20"/></linearGradient><linearGradient id="linear-gradient-2" x1="0" y1="193.95" x2="236.46" y2="193.95" xlink:href="#linear-gradient"/><linearGradient id="linear-gradient-3" x1="9.83" y1="58.95" y2="58.95" xlink:href="#linear-gradient"/><linearGradient id="linear-gradient-4" x1="123.15" y1="313.28" x2="199.24" y2="313.28" xlink:href="#linear-gradient"/></defs><g class="cls-2"><g id="Layer_1"><path class="cls-5" d="m149.59,118.55c-3.63,5.16-8.11,13.85-8.88,27.45h95.75v75.56c-31.97-17.08-69.36-17.81-95.75,0-37.99,25.64-50.32,87.77-16.91,138.14-11.83-6.04-25.92-14.98-39.33-28.37C7.82,254.81-.22,79.36,90.23,23.3c63.87-39.58,149.61-2.76,165.12,4.19v75.57c-45.57-16.34-88.33-9.27-105.76,15.49Z"/><path class="cls-3" d="m236.46,221.56c-16.83-6.58-60.1-20.9-113.95-9.51-47.44,10.03-78.66,34.85-92.2,47.07-6.5-8.55-14.36-20.8-20.47-36.75C1.53,200.7-.01,181.41,0,168.85c22.4-13.61,70.07-38.31,134.76-39.98,44.12-1.13,79.57,8.87,101.7,17.14v75.56Z"/><path class="cls-3" d="m255.35,103.06c-24.8-8.85-65.91-20.01-117.36-18.04-58.76,2.25-103.52,20.59-128.15,32.88,3.41-19.66,12.82-54.35,41.75-81.24C99.66-8.02,181.88-12.79,255.35,27.49v75.57Z"/><circle class="cls-5" cx="161.2" cy="313.28" r="38.04"/><g class="cls-6"><path class="cls-7" d="m149.59,118.55c-3.63,5.16-8.11,13.85-8.88,27.45h95.75v75.56c-31.97-17.08-69.36-17.81-95.75,0-37.99,25.64-50.32,87.77-16.91,138.14-11.83-6.04-25.92-14.98-39.33-28.37C7.82,254.81-.22,79.36,90.23,23.3c63.87-39.58,149.61-2.76,165.12,4.19v75.57c-45.57-16.34-88.33-9.27-105.76,15.49Z"/><path class="cls-1" d="m236.46,221.56c-16.83-6.58-60.1-20.9-113.95-9.51-47.44,10.03-78.66,34.85-92.2,47.07-6.5-8.55-14.36-20.8-20.47-36.75C1.53,200.7-.01,181.41,0,168.85c22.4-13.61,70.07-38.31,134.76-39.98,44.12-1.13,79.57,8.87,101.7,17.14v75.56Z"/><path class="cls-4" d="m255.35,103.06c-24.8-8.85-65.91-20.01-117.36-18.04-58.76,2.25-103.52,20.59-128.15,32.88,3.41-19.66,12.82-54.35,41.75-81.24C99.66-8.02,181.88-12.79,255.35,27.49v75.57Z"/><circle class="cls-8" cx="161.2" cy="313.28" r="38.04"/></g></g></g></svg>